<svg xmlns="http://www.w3.org/2000/svg"  version="1.1" viewBox="117.93 22.33 33.2 31.38"><defs><clipPath id="clip1">  <path d="M 117.945312 22.332031 L 151.105469 22.332031 L 151.105469 53.683594 L 117.945312 53.683594 Z M 117.945312 22.332031 "></path></clipPath></defs><g id="surface1"><path style=" stroke:none;fill-rule:evenodd;fill:rgb(16.862745%,65.882353%,29.019608%);fill-opacity:1;" d="M 134.039062 48.808594 L 137.777344 41.160156 L 137.460938 40.039062 L 135.335938 42.238281 C 134.671875 42.828125 133.683594 41.820312 134.332031 41.167969 L 138.023438 36.933594 C 138.429688 36.648438 138.609375 36.546875 139.023438 36.328125 C 139.488281 36.113281 139.585938 36.113281 140.023438 36.507812 L 143.324219 39.871094 C 143.445312 40.003906 143.488281 39.972656 143.53125 40.261719 L 143.53125 41.910156 C 143.53125 42.640625 142.171875 42.632812 142.160156 41.902344 L 142.160156 40.613281 L 140.925781 39.726562 L 140.476562 40.949219 C 141.503906 43.703125 142.347656 46.195312 143.375 48.933594 C 143.839844 50.230469 142.246094 50.867188 141.613281 49.609375 L 139.042969 42.773438 C 137.882812 45.125 136.859375 47.355469 135.699219 49.695312 C 135.039062 50.90625 133.40625 49.972656 134.039062 48.808594 Z M 134.039062 48.808594 "></path><path style=" stroke:none;fill-rule:nonzero;fill:rgb(16.862745%,65.882353%,29.019608%);fill-opacity:1;" d="M 142.582031 50.390625 C 142.144531 50.390625 141.761719 50.121094 141.527344 49.65625 L 139.03125 43.019531 C 138.507812 44.085938 138.003906 45.140625 137.519531 46.164062 C 136.964844 47.324219 136.390625 48.527344 135.789062 49.742188 C 135.574219 50.136719 135.226562 50.363281 134.839844 50.363281 C 134.476562 50.363281 134.125 50.160156 133.9375 49.84375 C 133.746094 49.519531 133.75 49.132812 133.953125 48.761719 L 137.671875 41.148438 L 137.410156 40.230469 L 135.40625 42.308594 C 135.253906 42.445312 135.074219 42.515625 134.886719 42.515625 C 134.550781 42.515625 134.222656 42.285156 134.082031 41.953125 C 133.957031 41.648438 134.023438 41.339844 134.261719 41.097656 L 137.949219 36.871094 C 138.371094 36.566406 138.554688 36.460938 138.976562 36.242188 C 139.199219 36.136719 139.335938 36.085938 139.472656 36.085938 C 139.667969 36.085938 139.828125 36.195312 140.089844 36.433594 L 143.394531 39.800781 C 143.421875 39.832031 143.441406 39.851562 143.460938 39.867188 C 143.554688 39.953125 143.59375 40.007812 143.628906 40.242188 L 143.628906 41.910156 C 143.628906 42.351562 143.230469 42.550781 142.855469 42.550781 C 142.464844 42.550781 142.066406 42.328125 142.0625 41.902344 L 142.0625 40.664062 L 140.972656 39.882812 L 140.582031 40.949219 C 141.078125 42.28125 141.539062 43.570312 141.984375 44.816406 C 142.453125 46.132812 142.941406 47.496094 143.46875 48.898438 C 143.613281 49.308594 143.582031 49.691406 143.375 49.980469 C 143.195312 50.238281 142.898438 50.390625 142.582031 50.390625 Z M 139.054688 42.523438 L 141.707031 49.574219 C 141.902344 49.964844 142.222656 50.191406 142.582031 50.191406 C 142.835938 50.191406 143.070312 50.070312 143.214844 49.867188 C 143.382812 49.632812 143.40625 49.3125 143.28125 48.96875 C 142.753906 47.5625 142.269531 46.199219 141.796875 44.882812 C 141.347656 43.625 140.882812 42.328125 140.382812 40.984375 L 140.371094 40.953125 L 140.875 39.570312 L 142.257812 40.5625 L 142.257812 41.902344 C 142.261719 42.210938 142.570312 42.355469 142.855469 42.355469 C 143.132812 42.355469 143.433594 42.214844 143.433594 41.910156 L 143.433594 40.261719 C 143.402344 40.085938 143.382812 40.066406 143.324219 40.011719 C 143.304688 39.992188 143.28125 39.96875 143.253906 39.9375 L 139.953125 36.574219 C 139.703125 36.351562 139.59375 36.28125 139.472656 36.28125 C 139.375 36.28125 139.253906 36.332031 139.0625 36.417969 C 138.65625 36.632812 138.476562 36.734375 138.082031 37.015625 L 134.40625 41.234375 C 134.15625 41.484375 134.210938 41.746094 134.265625 41.878906 C 134.371094 42.132812 134.632812 42.316406 134.886719 42.316406 C 135.027344 42.316406 135.15625 42.265625 135.269531 42.164062 L 137.507812 39.847656 L 137.882812 41.167969 L 134.128906 48.851562 C 133.957031 49.164062 133.949219 49.480469 134.105469 49.746094 C 134.257812 50 134.546875 50.164062 134.839844 50.164062 C 135.15625 50.164062 135.433594 49.980469 135.613281 49.648438 C 136.210938 48.441406 136.785156 47.238281 137.339844 46.078125 C 137.859375 44.988281 138.394531 43.867188 138.957031 42.730469 Z M 139.054688 42.523438 "></path><path style=" stroke:none;fill-rule:evenodd;fill:rgb(16.862745%,65.882353%,29.019608%);fill-opacity:1;" d="M 138.140625 33.4375 C 138.828125 33.4375 139.390625 34.003906 139.390625 34.683594 C 139.390625 35.371094 138.828125 35.929688 138.140625 35.929688 C 137.460938 35.929688 136.894531 35.371094 136.894531 34.683594 C 136.894531 34.003906 137.460938 33.4375 138.140625 33.4375 Z M 138.140625 33.4375 "></path><path style=" stroke:none;fill-rule:nonzero;fill:rgb(16.862745%,65.882353%,29.019608%);fill-opacity:1;" d="M 138.140625 36.03125 C 137.398438 36.03125 136.796875 35.425781 136.796875 34.683594 C 136.796875 33.941406 137.398438 33.339844 138.140625 33.339844 C 138.882812 33.339844 139.488281 33.941406 139.488281 34.683594 C 139.488281 35.425781 138.882812 36.03125 138.140625 36.03125 Z M 138.140625 33.535156 C 137.519531 33.535156 136.992188 34.0625 136.992188 34.683594 C 136.992188 35.316406 137.507812 35.832031 138.140625 35.832031 C 138.777344 35.832031 139.292969 35.316406 139.292969 34.683594 C 139.292969 34.050781 138.777344 33.535156 138.140625 33.535156 Z M 138.140625 33.535156 "></path><g clip-path="url(#clip1)" clip-rule="nonzero"><path style=" stroke:none;fill-rule:evenodd;fill:rgb(16.862745%,65.882353%,29.019608%);fill-opacity:1;" d="M 118.085938 28.992188 C 117.820312 30.582031 118.765625 33.074219 117.949219 34.820312 C 117.917969 36.894531 118.347656 38.78125 118.179688 40.949219 C 118.101562 41.894531 117.835938 42.988281 118.070312 43.917969 C 118.363281 45.09375 119.386719 46.9375 119.648438 48.390625 C 120.546875 48.933594 120.171875 51.019531 121.117188 51.765625 C 121.707031 51.839844 123.066406 51.871094 123.066406 52.351562 C 123.511719 52.351562 126.4375 52.367188 126.4375 52.816406 C 127.902344 52.816406 129.308594 53.496094 130.8125 53.621094 C 132.183594 53.730469 133.410156 53.757812 134.9375 53.171875 C 137.183594 53.296875 139.59375 53.144531 141.851562 53.144531 L 146.785156 53.003906 C 147.277344 53.003906 147.683594 52.816406 148.453125 52.335938 C 148.855469 51.933594 149.441406 51.65625 149.964844 51.160156 C 150.25 50.523438 150.925781 50.074219 150.988281 49.273438 C 151.175781 46.890625 151.15625 44.988281 150.789062 42.589844 L 149.800781 34.003906 C 149.613281 31.988281 149.875 29.578125 150.0625 27.5625 C 150.136719 26.425781 149.554688 24.980469 149.269531 23.960938 C 149.179688 23.960938 148.40625 22.785156 148.003906 22.613281 C 146.289062 22.847656 143.507812 23.1875 142.4375 23.019531 C 140.910156 22.769531 138.277344 22.105469 136.039062 22.414062 C 135.125 22.539062 131.414062 22.554688 130.296875 23.03125 L 123.976562 23.09375 C 122.460938 23.09375 120.835938 23.527344 119.617188 24.269531 C 118.78125 25.773438 118.300781 27.722656 118.085938 28.992188 M 123.945312 25.480469 C 124.59375 24.996094 126.652344 25.199219 127.132812 25.199219 C 127.519531 25.976562 127.765625 27.039062 127.828125 29.347656 L 127.8125 32.347656 C 127.875 33.164062 128.613281 33.230469 128.613281 32.347656 L 128.628906 28.171875 C 128.628906 27.316406 128.972656 25.835938 129.160156 25.445312 C 129.574219 24.582031 129.871094 24.597656 130.296875 25.324219 C 130.84375 26.191406 131.058594 28.171875 131.058594 28.804688 C 131.152344 29.4375 131.800781 29.375 131.773438 28.804688 C 131.773438 27.90625 132.28125 25.339844 133.113281 24.644531 C 133.5625 24.269531 134.011719 24.238281 135.019531 24.285156 C 135.1875 24.539062 135.328125 25.0625 135.402344 25.542969 C 135.574219 26.5625 135.695312 27.585938 135.695312 28.125 C 135.695312 28.835938 136.441406 28.972656 136.441406 28.09375 C 136.441406 27.316406 136.53125 26.082031 136.578125 25.820312 C 136.65625 25.386719 136.71875 24.6875 137.152344 24.472656 C 137.832031 24.117188 139.191406 24.304688 139.503906 24.90625 C 140.230469 26.328125 140.691406 28.882812 140.582031 30.695312 C 140.539062 31.699219 141.417969 31.605469 141.417969 30.695312 C 141.417969 30.183594 141.433594 28.972656 141.589844 28.574219 C 141.824219 27.984375 142.144531 26.890625 142.578125 26.734375 C 142.714844 25.632812 144.804688 26.425781 145.527344 26.328125 C 146.367188 26.238281 147.046875 25.714844 147.585938 25.28125 L 148.160156 30.089844 C 148.222656 30.613281 148.253906 31.714844 148.4375 32.175781 C 148.46875 33.480469 148.625 35.644531 148.71875 36.558594 L 148.808594 42.21875 L 148.625 46.875 C 148.625 47.230469 148.34375 49.152344 147.902344 49.152344 C 147.902344 49.597656 146.597656 50.34375 146.148438 50.34375 C 146.148438 51.25 143.335938 50.792969 142.796875 50.792969 L 136.210938 50.710938 L 130.730469 50.710938 C 130.285156 50.710938 128.089844 50.882812 128.089844 50.34375 C 126.898438 50.34375 126.726562 47.460938 126.589844 46.5625 C 126.359375 45.035156 126 43.5 126 41.679688 C 126.0625 41.027344 125.351562 40.855469 125.351562 41.679688 C 125.351562 43.410156 124.625 44.675781 123.898438 46.148438 C 123.015625 44.230469 121.660156 42.757812 121.660156 40.300781 C 121.660156 40.007812 121.550781 38.707031 121.578125 37.824219 C 121.59375 37.34375 120.949219 37.3125 120.949219 37.761719 C 120.949219 38.011719 120.636719 40.054688 120.5625 40.390625 C 120.484375 40.734375 120.285156 41.664062 120.097656 41.859375 C 119.601562 40.609375 119.476562 37.839844 119.476562 36.558594 C 119.476562 35.179688 119.289062 33.351562 119.835938 32.175781 C 120.097656 31.621094 120.824219 30.582031 120.558594 29.953125 C 120.652344 29.75 120.652344 29.839844 120.558594 29.652344 C 120.652344 29.390625 120.558594 28.433594 121.101562 28.433594 C 121.101562 28.261719 122.246094 27.457031 122.417969 27.457031 C 122.710938 26.808594 122.738281 26.15625 123.015625 26.15625 C 123.015625 25.742188 123.652344 25.585938 123.945312 25.480469 Z M 123.945312 25.480469 "></path></g></g></svg>